<?xml version="1.0" encoding="UTF-8" standalone="no"?>
<!-- Created with Inkscape (http://www.inkscape.org/) -->

<svg
   xmlns:dc="http://purl.org/dc/elements/1.1/"
   xmlns:cc="http://creativecommons.org/ns#"
   xmlns:rdf="http://www.w3.org/1999/02/22-rdf-syntax-ns#"
   xmlns:svg="http://www.w3.org/2000/svg"
   xmlns="http://www.w3.org/2000/svg"
   xmlns:xlink="http://www.w3.org/1999/xlink"
   xmlns:sodipodi="http://sodipodi.sourceforge.net/DTD/sodipodi-0.dtd"
   xmlns:inkscape="http://www.inkscape.org/namespaces/inkscape"
   width="768"
   height="614"
   id="svg4266"
   version="1.1"
   inkscape:version="0.92.1 r15371"
   sodipodi:docname="Error.svg">
  <defs
     id="defs4268">
    <linearGradient
       id="linearGradient4800">
      <stop
         style="stop-color:#ececec;stop-opacity:1;"
         offset="0"
         id="stop4802" />
      <stop
         style="stop-color:#bbbfc2;stop-opacity:1;"
         offset="1"
         id="stop4804" />
    </linearGradient>
    <linearGradient
       id="linearGradient4792">
      <stop
         style="stop-color:#ffef00;stop-opacity:1;"
         offset="0"
         id="stop4794" />
      <stop
         style="stop-color:#000000;stop-opacity:0;"
         offset="1"
         id="stop4796" />
    </linearGradient>
    <radialGradient
       inkscape:collect="always"
       xlink:href="#linearGradient3189-4-1"
       id="radialGradient3801"
       gradientUnits="userSpaceOnUse"
       gradientTransform="matrix(-0.3782355,0.01188089,-0.01642642,-0.52294519,631.557,503.2619)"
       cx="592.24304"
       cy="344.30774"
       fx="592.24304"
       fy="344.30774"
       r="1775.8438" />
    <linearGradient
       id="linearGradient3189-4-1">
      <stop
         id="stop3191-8-7"
         offset="0"
         style="stop-color:#c0e2f4;stop-opacity:1" />
      <stop
         style="stop-color:#c0e2f4;stop-opacity:1"
         offset="0.19110112"
         id="stop3193-8-1" />
      <stop
         id="stop3195-2-1"
         offset="0.65243429"
         style="stop-color:#c0e2f4;stop-opacity:1;" />
      <stop
         id="stop3197-4-5"
         offset="1"
         style="stop-color:#7ca6bd;stop-opacity:1" />
    </linearGradient>
  </defs>
  <sodipodi:namedview
     id="base"
     pagecolor="#ffffff"
     bordercolor="#666666"
     borderopacity="1.0"
     inkscape:pageopacity="0.0"
     inkscape:pageshadow="2"
     inkscape:zoom="0.42426407"
     inkscape:cx="42.912938"
     inkscape:cy="528.73908"
     inkscape:document-units="px"
     inkscape:current-layer="layer1"
     showgrid="false"
     inkscape:window-width="1301"
     inkscape:window-height="744"
     inkscape:window-x="65"
     inkscape:window-y="24"
     inkscape:window-maximized="1" />
  <metadata
     id="metadata4271">
    <rdf:RDF>
      <cc:Work
         rdf:about="">
        <dc:format>image/svg+xml</dc:format>
        <dc:type
           rdf:resource="http://purl.org/dc/dcmitype/StillImage" />
        <dc:title />
      </cc:Work>
    </rdf:RDF>
  </metadata>
  <g
     id="layer1"
     inkscape:label="Layer 1"
     inkscape:groupmode="layer"
     transform="translate(0,-538)">
    <path
       style="display:inline;fill:#efeae0;fill-opacity:1;stroke:none;stroke-width:1.06666672;enable-background:new"
       d="M -3.9700001e-6,536.5333 V 1152 H 768.53334 V 536.5333 Z"
       id="rect3841-4"
       inkscape:connector-curvature="0" />
    <path
       style="display:inline;fill:url(#radialGradient3801);fill-opacity:1;fill-rule:evenodd;stroke:none;stroke-width:1.06666672;enable-background:new"
       d="m 0,536.53326 v 55.76672 l 85.5,-55.76672 z m 171.93334,0 L 0,690.73326 V 778.2666 L 216.83334,536.53326 Z m 95.43332,0 L 0,946.49998 V 1122.7 L 297.23333,536.53326 Z m 67.1,0 L 133.16667,1152 h 95.7 L 358.43333,536.53326 Z m 56.23334,0 L 357.26666,1152 h 89.26668 L 413.1,536.53326 Z m 54.66667,0 L 574.93334,1152 h 95.7 l -201.3,-615.46674 z m 61.16667,0 262,516.66674 V 892.4666 L 536.40001,536.53326 Z m 80.43333,0 181.56667,202.43339 V 659.09998 L 631.86667,536.53326 Z m 131.3,0 50.26667,32.76672 v -32.76672 z"
       id="path3030"
       inkscape:connector-curvature="0" />
    <rect
       style="display:inline;fill:none;stroke:#000000;stroke-width:1.06666672;stroke-opacity:1;enable-background:new"
       id="rect4339"
       width="768"
       height="614.40002"
       x="0.53333336"
       y="537.06665"
       inkscape:export-filename="/home/pi/Desktop/desktop front end.png"
       inkscape:export-xdpi="90"
       inkscape:export-ydpi="90" />
    <rect
       style="opacity:1;fill:#008000;fill-opacity:1;stroke:#585858;stroke-width:0.48897219;stroke-miterlimit:4;stroke-dasharray:none;stroke-opacity:1"
       id="ErrorMessage"
       width="574.54242"
       height="422.45767"
       x="96.995461"
       y="690.73328"
       inkscape:label="#rect3008" />
    <g
       transform="translate(0.17203743,506.85417)"
       style="font-style:normal;font-weight:normal;font-size:40px;line-height:125%;font-family:Sans;letter-spacing:0px;word-spacing:0px;display:inline;fill:#cc2c38;fill-opacity:1;stroke:none;enable-background:new"
       id="text4080">
      <path
         d="m 97.735394,156.6213 c 3.251186,-1.63248 12.062786,0.89651 24.390806,-8.17617 10.84866,-7.98395 13.84944,-18.66314 9.49455,-24.58059 -4.1475,-5.63567 -12.11497,-6.7225 -26.3731,1.05562 -6.417285,3.52814 -9.412016,3.88588 -10.189675,2.82918 -0.881345,-1.19757 1.017944,-4.22433 4.540236,-6.81653 11.341779,-8.34686 17.904619,-0.90492 23.892519,-5.31165 2.18382,-1.60715 2.80441,-4.45306 1.30093,-6.496 -1.55532,-2.11337 -4.41983,-2.61166 -6.39231,-1.16004 -1.40892,1.03689 -1.81024,2.85263 -0.9289,4.05021 0.62213,0.84534 1.79319,0.96093 2.63854,0.33879 -0.67397,-0.91579 -0.34706,-2.24238 0.70962,-3.02004 1.12714,-0.82949 2.59462,-0.60627 3.37228,0.45041 1.24425,1.6907 0.69808,4.04746 -1.06307,5.34355 -2.53605,1.86638 -5.47101,1.41993 -7.13002,-0.83433 -1.29609,-1.76116 -1.37326,-2.89897 0.30643,-10.65111 l -0.73373,-0.11161 c -0.2153,0.59285 -0.46384,0.99296 -0.95696,1.35587 -1.26804,0.93319 -3.7736,1.36533 -7.45418,2.11922 -1.61233,0.31778 -5.1999,0.46021 -7.286753,1.01861 0.296423,0.10765 0.696533,0.3562 0.852063,0.56753 0.15553,0.21134 0.13693,0.33363 0.0479,0.50776 -1.949923,0.89203 -4.059343,2.01003 -6.243164,3.61719 -10.144201,7.46552 -13.230061,17.88152 -9.030708,23.58763 4.614102,6.26969 14.966042,4.84149 25.939742,-1.4969 6.71768,-3.8578 9.6938,-4.09324 10.52331,-2.96611 1.08871,1.47936 -1.42994,5.28775 -5.58625,8.34653 -5.00166,3.68092 -11.98924,6.43415 -15.52651,2.95578 l -3.113585,13.4772"
         style="font-variant:normal;font-stretch:normal;font-size:82px;font-family:Agreloy;-inkscape-font-specification:Agreloy;fill:#cc2c38;stroke-width:1.06666672"
         id="path3195"
         inkscape:connector-curvature="0" />
      <path
         d="m 126.59057,90.402668 c 3.65054,-0.176559 7.23284,1.875812 8.71569,5.236837 l 5.11934,11.603545 c 1.2357,2.80086 0.55078,3.19864 -1.20975,3.97537 1.93472,0.48483 4.06953,2.50663 5.23461,5.14743 l 2.68325,6.08186 c 1.02386,2.32071 1.25455,5.66057 -0.77664,7.99072 l 36.01102,-15.88761 c 2.40073,-1.05917 5.2934,-0.13656 6.24665,2.02409 1.83591,4.16127 0.0731,9.04987 -3.84815,10.77985 -2.6408,1.16509 -5.82533,-0.20237 -7.13165,-3.16326 -0.52959,-1.20037 -0.1177,-2.4337 0.84259,-2.85737 0.72022,-0.31775 1.49223,-0.0847 1.70406,0.39541 0.56017,-0.24715 0.71315,-0.98384 0.3954,-1.70407 -0.49428,-1.12034 -1.95827,-1.62166 -3.23865,-1.05677 -2.96091,1.30632 -4.20362,4.34022 -3.03853,6.98102 0.88264,2.00061 2.11362,3.27394 3.94949,4.18479 -0.17652,-0.40012 -0.12239,-0.71081 0.12709,-1.01208 2.21011,0.45895 4.42255,0.0564 6.74326,-0.96742 2.72083,-1.2004 4.53078,-3.81535 4.98266,-6.69153 -0.0353,-0.08 0.0447,-0.11533 0.20477,-0.18594 0.24007,-0.10592 0.79083,-0.15771 1.10152,-0.10358 -0.25656,-0.36482 -0.58373,-0.88968 -0.90147,-1.6099 -0.21184,-0.48015 -0.42367,-0.96029 -0.54607,-1.6711 -0.13181,-0.51546 -0.29893,-1.11093 -0.54607,-1.6711 -1.44753,-3.28101 -4.99692,-7.64233 -7.29179,-12.84392 -0.70611,-1.60049 -1.33221,-3.23628 -1.6735,-5.093326 -0.93437,3.949466 -3.83878,7.334076 -7.11978,8.781616 l -15.60478,6.88463 -2.29487,-5.20159 16.80514,-7.41422 -4.2367,-9.60294 -16.80514,7.414217 -2.64794,-6.001835 16.40503,-7.23769 c 3.20097,-1.41223 6.14071,-1.466392 9.5559,-0.0095 l -5.79015,-13.124015 -27.84853,12.286419 c -5.12155,2.259569 -9.91362,4.182565 -14.27731,5.342964"
         style="font-variant:normal;font-stretch:normal;font-size:82px;font-family:Agreloy;-inkscape-font-specification:Agreloy;fill:#cc2c38;stroke-width:1.06666672"
         id="path3197"
         inkscape:connector-curvature="0" />
      <path
         d="m 194.86894,110.28623 30.37719,-5.99549 c 3.0034,-0.59277 6.02261,-0.65374 8.9718,-0.16597 -1.21942,-6.178409 -1.0478,-12.987998 -2.21642,-18.908971 -1.05004,-5.320293 -6.03275,-8.883725 -11.09561,-7.884477 -2.57434,0.508091 -4.72188,1.82349 -5.9955,3.501323 -0.37712,-0.103872 -0.63342,-0.49906 -0.70117,-0.842305 -0.98231,1.798648 -1.22733,3.719243 -0.82086,5.778712 0.5589,2.831769 3.40198,4.588645 6.31956,4.012807 1.37298,-0.270982 2.31915,-1.349269 2.08204,-2.550626 -0.16935,-0.858112 -0.73391,-1.459921 -1.33459,-1.341366 0.11856,0.600678 -0.31163,1.131354 -0.99811,1.266846 -1.02974,0.203236 -2.07416,-0.571325 -2.3282,-1.858493 -0.57583,-2.917581 1.28378,-5.691772 4.11556,-6.250673 4.54799,-0.897629 9.03502,1.961246 9.89877,6.337617 0.25405,1.287168 0.82537,5.988725 -7.41251,7.614619 l -14.33048,2.828381 -5.18254,-26.25825 c -0.74521,-3.775693 1.32217,-7.304121 4.58299,-7.947705 2.74597,-0.541965 5.33273,0.819728 5.77307,3.050818 0.35567,1.802035 -0.74634,3.446001 -2.46256,3.784729 -1.28717,0.254046 -2.48626,-0.400831 -2.70644,-1.516377 -1.02973,0.203238 -1.71849,1.230716 -1.53218,2.174638 0.30485,1.544602 1.91494,2.474978 3.63116,2.136251 2.83178,-0.558902 4.55478,-3.573591 3.96201,-6.576982 -0.52503,-2.660147 -3.52278,-4.297338 -6.78361,-3.653755 -3.34663,0.660519 -6.06325,3.15808 -10.09637,3.95409 l -12.1852,2.404971 c 3,0.745203 4.75913,3.785861 5.21641,6.102764 l 2.54047,12.871691 c 0.59277,3.003392 -0.16259,3.241635 -2.05044,3.614235 1.78171,0.896503 3.42229,3.336482 3.98119,6.168252 l 1.28717,6.521656 c 0.49115,2.48853 -0.0147,5.79791 -2.5066,7.62704"
         style="font-variant:normal;font-stretch:normal;font-size:82px;font-family:Agreloy;-inkscape-font-specification:Agreloy;fill:#cc2c38;stroke-width:1.06666672"
         id="path3199"
         inkscape:connector-curvature="0" />
      <path
         d="m 241.36353,103.69517 c 4.70765,-1.28301 6.62527,-1.83163 9.86128,-1.87177 2.79872,-0.0347 5.26929,1.68412 5.29858,4.04553 l 0.0875,-0.001 c 0.67907,-1.67042 1.77266,-5.18292 1.73579,-8.156557 l -0.13451,-10.845032 14.86818,-0.184403 c 3.0611,-0.03796 5.71202,2.115994 5.74348,4.65233 0.0608,4.897751 -3.47631,8.877932 -7.93676,8.933252 -2.88618,0.0358 -5.2758,-2.208882 -5.31268,-5.182517 -0.0163,-1.311898 0.84856,-2.109886 1.89809,-2.122902 0.69967,-0.0086 1.22985,0.422114 1.23745,1.034333 0.61222,-0.0076 1.04084,-0.712697 1.02999,-1.587296 -0.0151,-1.224438 -1.07555,-2.086021 -2.38745,-2.069751 -3.23601,0.04014 -5.57141,2.168464 -5.53561,5.054639 0.026,2.099037 0.65778,3.665726 1.98921,5.223734 -0.004,-0.34984 0.16516,-0.789311 0.51283,-0.968569 1.59163,1.379829 3.96282,2.137689 6.58661,2.105149 4.89775,-0.0607 8.86343,-4.746029 8.79292,-10.430919 l -0.18875,-15.21803 -21.42769,0.265757 -0.0976,-7.871394 17.49199,-0.216945 c 3.49839,-0.04339 6.22376,1.059967 8.79372,3.739765 l -0.17789,-14.34343 -43.29267,0.536937 c 2.81499,1.277188 3.99318,4.586568 4.02247,6.947983 l 0.16271,13.118991 c 0.038,3.061096 -0.74809,3.158321 -2.67221,3.182185 1.58947,1.204913 2.76007,3.902073 2.79587,6.788248 l 0.0987,7.958855 c 0.0304,2.448876 -1.24682,5.263867 -3.8435,7.482907"
         style="font-variant:normal;font-stretch:normal;font-size:82px;font-family:Agreloy;-inkscape-font-specification:Agreloy;fill:#cc2c38;stroke-width:1.06666672"
         id="path3201"
         inkscape:connector-curvature="0" />
      <path
         d="m 290.28738,103.77639 c 3.61981,-0.18089 6.75054,-0.76004 11.10399,-0.34355 l 11.05777,1.05788 c -2.74833,-1.58092 -3.49329,-4.815365 -3.25172,-7.340368 l 0.63307,-6.617253 c 0.27488,-2.873278 1.665,-5.464138 3.26179,-6.541498 -1.91552,-0.183255 -2.60375,-0.336966 -2.31221,-3.384383 l 1.24948,-13.060368 c 0.2249,-2.350864 1.58627,-5.559537 4.58449,-6.59069 l -13.75692,-1.316106 c -1.82845,-0.174925 -5.63451,-0.802644 -7.40465,-1.587053 l -0.21579,0.418686 c 3.27907,1.543828 4.00738,4.952418 3.65753,8.609317 l -1.1745,12.276746 c -0.29154,3.047417 -0.99642,3.06785 -2.91194,2.884596 1.36355,1.360572 2.23722,4.168006 1.96234,7.041285 l -0.63306,6.617253 c -0.23323,2.437933 -1.50376,6.533956 -5.84967,7.875506"
         style="font-variant:normal;font-stretch:normal;font-size:82px;font-family:Agreloy;-inkscape-font-specification:Agreloy;fill:#cc2c38;stroke-width:1.06666672"
         id="path3203"
         inkscape:connector-curvature="0" />
      <path
         d="m 324.85018,60.850736 c 3.15077,1.852081 5.02344,5.53152 4.4228,9.155681 l -2.07364,12.511996 c -0.50053,3.020133 -1.29145,2.977716 -3.18981,2.663094 1.35299,1.465472 2.03143,4.326367 1.55949,7.173922 l -1.08688,6.558012 c -0.41472,2.502399 -2.05132,5.422909 -5.0271,6.259629 l 38.83033,6.43544 c 2.58868,0.42904 4.50329,2.78553 4.11717,5.11534 -0.74366,4.48706 -4.89648,7.61118 -9.12466,6.91043 -2.84757,-0.47193 -4.76266,-3.36047 -4.23352,-6.55318 0.21452,-1.29434 1.23472,-2.10051 2.2702,-1.92891 0.77661,0.12872 1.29483,0.74656 1.20902,1.2643 0.60403,0.10005 1.13559,-0.43242 1.26429,-1.20902 0.20022,-1.20806 -0.74994,-2.42945 -2.13057,-2.65826 -3.19271,-0.52915 -5.89437,1.32826 -6.36629,4.17581 -0.35753,2.15725 -0.0252,3.89686 1.01171,5.66459 0.0715,-0.43146 0.28699,-0.66172 0.66075,-0.7771 1.59755,1.59467 3.669,2.46993 6.17139,2.88466 2.93384,0.48623 5.88055,-0.70994 7.83419,-2.86863 0.0143,-0.0863 0.10058,-0.072 0.27317,-0.0434 0.25887,0.0429 0.748,0.30128 0.97827,0.51677 -0.0148,-0.44575 -9.7e-4,-1.06408 0.12774,-1.84068 0.0858,-0.51774 0.17161,-1.03548 0.4586,-1.6972 0.17209,-0.50343 0.35849,-1.09316 0.4586,-1.69719 0.58635,-3.53787 0.006,-9.13095 0.93565,-14.73977 0.28601,-1.72579 0.65832,-3.437287 1.3901,-5.177863 -2.94525,2.792286 -7.2292,4.032813 -10.76707,3.446473 l -16.82648,-2.788696 0.92957,-5.608826 18.12082,3.003211 1.71612,-10.354754 -18.12082,-3.003211 1.07257,-6.471721 17.68938,2.931704 c 3.45157,0.572041 5.94065,2.13714 7.99971,5.226844 l 2.34537,-14.151498 -30.02879,-4.976749 c -5.52253,-0.915264 -10.58503,-1.931604 -14.87138,-3.35127"
         style="font-variant:normal;font-stretch:normal;font-size:82px;font-family:Agreloy;-inkscape-font-specification:Agreloy;fill:#cc2c38;stroke-width:1.06666672"
         id="path3205"
         inkscape:connector-curvature="0" />
      <path
         d="m 375.65239,86.596939 c 2.42946,-3.86589 6.11386,-3.531431 9.53637,-2.805453 l 6.67391,1.415656 -1.88754,8.898545 c -0.63524,2.9947 -1.42345,2.91692 -3.30584,2.517632 1.28605,1.52457 1.83573,4.412971 1.2368,7.236541 l -2.34128,11.03762 c -0.50818,2.39576 -2.41131,3.78033 -4.7215,3.2903 -3.08027,-0.65338 -4.73449,-2.97136 -4.09927,-5.96606 0.2541,-1.19788 1.24195,-2.06129 2.35427,-1.82535 0.59895,0.12704 1.00343,0.74933 0.89453,1.2627 0.51338,0.1089 1.15381,-0.38115 1.31714,-1.15121 0.19965,-0.94119 -0.66376,-1.92905 -1.86164,-2.18315 -2.65245,-0.56263 -5.10525,0.88416 -5.59528,3.19436 -0.38115,1.79682 -0.28001,3.42771 0.54191,5.03265 0.0908,-0.42781 0.31633,-0.6482 0.69488,-0.74673 1.59198,1.7683 3.00507,2.69393 5.4864,3.22027 2.90914,0.61708 6.89429,-1.3094 10.74461,-0.49267 l 5.13379,1.08897 c 1.88237,0.39928 5.25045,1.38195 6.19164,1.5816 -2.9973,-1.88757 -3.6118,-6.57797 -3.10362,-8.97373 l 1.19786,-5.64715 c 0.59893,-2.82357 2.18832,-5.25824 3.98254,-6.12943 -1.88238,-0.39928 -2.54873,-0.630046 -1.9135,-3.624744 l 1.88754,-8.898545 5.73271,1.216012 c 3.76477,0.798575 6.72577,2.857265 8.52261,6.189023 l 2.14163,-10.096425 c 0.36299,-1.711257 1.03193,-3.178795 2.40353,-4.586696 l -44.57829,-9.455864 -3.26691,15.401328"
         style="font-variant:normal;font-stretch:normal;font-size:82px;font-family:Agreloy;-inkscape-font-specification:Agreloy;fill:#cc2c38;stroke-width:1.06666672"
         id="path3207"
         inkscape:connector-curvature="0" />
      <path
         d="m 420.28854,103.92318 c 1.1881,1.95677 2.13818,3.77266 2.29351,5.9538 0.58237,10.14788 8.09593,18.0344 20.15079,20.63785 12.05486,2.60345 22.06792,-1.4979 26.87177,-10.48254 1.04161,-1.92264 2.5709,-3.20306 4.54613,-4.47666 -1.28243,-0.27696 -2.00332,-0.25369 -2.74268,-0.14491 0.11079,-0.51297 0.32553,-1.09298 0.45478,-1.69145 2.86195,-13.2518 -4.98274,-24.162775 -19.60247,-27.320151 -14.61972,-3.157376 -26.28651,3.629252 -29.13,16.795561 -0.12925,0.59846 -0.2585,1.19693 -0.36928,1.70991 -0.62858,-0.4042 -1.27561,-0.72291 -2.47255,-0.98141 m 15.66617,2.04113 c 0.88628,-4.10379 5.2827,-6.644156 9.98495,-5.62863 3.50531,0.75704 5.83977,4.03519 5.1566,7.19852 -0.60932,2.82135 -3.56876,4.50878 -6.47561,3.88099 -1.28243,-0.27696 -2.03824,-1.33503 -1.81667,-2.36097 0.14771,-0.68397 0.7229,-1.27561 1.32137,-1.14636 0.11079,-0.51297 -0.4624,-1.17366 -1.14635,-1.32137 -1.28243,-0.27697 -2.46293,0.63137 -2.75835,1.9993 -0.68318,3.16333 1.04117,5.95179 3.86253,6.5611 2.05189,0.44315 3.95808,0.31792 5.77396,-0.63216 -0.42748,-0.0924 -0.64703,-0.31871 -0.74417,-0.69761 1.77414,-1.58548 2.73026,-3.52659 3.26572,-6.00596 0.79396,-3.6763 -2.06511,-7.42569 -6.25439,-8.330431 -3.41982,-0.738568 -6.71442,0.429058 -8.72177,2.680031 2.37663,-3.960883 6.98579,-5.828926 12.45749,-4.647219 6.92514,1.4956 10.58176,6.938449 9.17849,13.436099 -1.42174,6.58315 -6.98018,9.94636 -13.90533,8.45077 -6.92513,-1.4956 -10.60022,-6.85295 -9.17847,-13.4361"
         style="font-variant:normal;font-stretch:normal;font-size:82px;font-family:Agreloy;-inkscape-font-specification:Agreloy;fill:#cc2c38;stroke-width:1.06666672"
         id="path3209"
         inkscape:connector-curvature="0" />
      <path
         d="m 474.09693,136.72081 16.18266,2.91849 c 4.38999,0.79172 7.5085,4.19823 6.90307,7.55526 -0.62095,3.44311 -3.70007,5.7319 -6.79887,5.17305 -1.89371,-0.34153 -3.12418,-1.89661 -2.82923,-3.53209 0.24838,-1.37725 1.56921,-2.29445 2.86037,-2.0616 0.21734,-1.20509 -0.52771,-2.49487 -1.99104,-2.75877 -1.54939,-0.27943 -3.30768,1.09215 -3.63368,2.89978 -0.51229,2.84058 1.80754,5.74752 5.25066,6.36848 2.23803,0.40362 4.43516,-0.44442 5.95072,-1.94865 0.60255,0.10867 1.15146,1.00757 1.84009,1.13176 -0.19754,-1.36879 0.01,-3.99771 0.21175,-5.11672 1.1643,-6.45585 -7.23891,-7.17145 -5.91938,-14.48807 l 1.24191,-6.88625 12.91171,2.32858 c 2.3241,0.41915 3.83818,3.35854 3.29485,6.37127 l -0.15524,0.86078 c -0.27942,1.5494 -0.35566,2.9577 -0.31475,4.20936 0.26241,2.98029 2.51308,6.76355 7.41952,7.64841 2.41018,0.43466 5.47656,0.18777 9.30777,-1.34321 -2.89699,-1.67788 -4.10627,-4.82894 -3.50084,-8.18598 l 0.52782,-2.92665 c 0.77619,-4.3039 -1.39686,-8.51755 -5.24211,-11.34409 4.03442,-1.67209 7.25325,-4.73558 7.88973,-8.26479 1.31953,-7.31662 -4.39398,-14.56848 -12.65745,-16.058766 l -30.9881,-5.588599 c 2.52164,1.787933 3.05075,5.260713 2.6316,7.584815 l -2.3441,12.99778 c -0.61389,2.91113 -1.31804,2.87302 -3.21176,2.53149 1.33207,1.48453 1.88377,4.33923 1.45756,7.19533 l -1.17982,6.54193 c -0.4502,2.49626 -2.11254,5.30719 -5.11542,6.18767 m 21.20952,-21.50508 1.39716,-7.74703 12.73954,2.29754 c 1.89371,0.34153 3.23425,2.27197 2.87719,4.25175 -0.43467,2.41019 -2.81102,3.75918 -5.22119,3.32451 l -3.09882,-0.55886 c -1.5494,-0.27943 -3.56164,-1.44223 -4.8542,-2.65299 0.4078,0.69569 0.47129,1.32929 0.37815,1.84574 l -4.21783,-0.76066"
         style="font-variant:normal;font-stretch:normal;font-size:82px;font-family:Agreloy;-inkscape-font-specification:Agreloy;fill:#cc2c38;stroke-width:1.06666672"
         id="path3211"
         inkscape:connector-curvature="0" />
      <path
         d="m 529.68122,147.80132 c 3.62402,-0.0478 6.77391,-0.5115 11.10912,0.0646 l 11.01144,1.46346 c -2.68839,-1.68083 -3.31401,-4.94047 -2.97984,-7.45489 l 0.87577,-6.58953 c 0.38026,-2.86123 1.86465,-5.39927 3.49994,-6.41723 -1.9075,-0.25352 -2.58961,-0.43241 -2.18629,-3.46706 l 1.72848,-13.00564 c 0.31113,-2.34101 1.78946,-5.4975 4.82355,-6.4178 l -13.69927,-1.82067 c -1.82079,-0.24199 -5.60122,-1.00912 -7.34134,-1.85804 l -0.23103,0.41047 c 3.22014,1.66327 3.82271,5.09631 3.33874,8.73789 l -1.62477,12.2253 c -0.40332,3.03465 -1.10848,3.02918 -3.01597,2.77566 1.31265,1.40975 2.08258,4.24739 1.70231,7.10863 l -0.87576,6.58953 c -0.32265,2.42772 -1.74282,6.47429 -6.13508,7.65526"
         style="font-variant:normal;font-stretch:normal;font-size:82px;font-family:Agreloy;-inkscape-font-specification:Agreloy;fill:#cc2c38;stroke-width:1.06666672"
         id="path3213"
         inkscape:connector-curvature="0" />
      <path
         d="m 560.88518,107.72782 c 2.69995,1.5052 3.60094,4.90054 3.43519,7.25632 l -1.09271,15.53068 c -0.61075,-0.043 -1.11584,-0.34156 -1.63935,-0.37839 -0.1745,-0.0123 -0.349,-0.0245 -0.52964,0.0505 1.29166,1.58148 2.07953,4.09204 2.2492,5.41922 1.33763,9.65154 8.76666,16.22435 19.84752,17.00399 10.99361,0.77348 19.26979,-4.69435 21.9457,-14.0635 0.35383,-1.29034 1.57273,-3.65971 3.07311,-5.04476 -0.16837,-0.0995 -0.43013,-0.11794 -0.60462,-0.13021 -0.52351,-0.0368 -1.06543,0.18808 -1.58894,0.15125 l 1.1541,-16.40319 c 0.17188,-2.44302 1.43989,-5.5104 4.4174,-6.70383 l -9.24861,-0.65071 c -6.63106,-0.46655 -8.45499,-4.45293 -13.16654,-4.78442 -2.79203,-0.19644 -5.11449,1.65686 -5.28639,4.09989 -0.1903,2.70478 1.66914,4.93999 4.11217,5.11188 1.74502,0.12277 3.22698,-1.00052 3.33134,-2.48379 0.0737,-1.047 -0.74359,-1.89365 -1.79061,-1.96732 -0.0798,1.13426 -1.1882,1.93311 -2.49696,1.84102 -1.39602,-0.0982 -2.36937,-1.21889 -2.27728,-2.52766 0.14733,-2.09403 2.09623,-3.62288 4.36476,-3.46327 3.05378,0.21486 5.47487,3.19106 5.24774,6.41935 l -1.4856,21.11473 c -0.36219,5.1478 -3.91101,8.23007 -8.88431,7.88016 -4.9733,-0.34991 -8.05556,-3.89873 -7.69338,-9.04653 l 1.20322,-17.1012 c 0.40516,-5.75856 -4.01526,-7.73555 -8.46506,-8.04863 -3.22828,-0.22713 -6.60521,0.4121 -8.13145,0.9185"
         style="font-variant:normal;font-stretch:normal;font-size:82px;font-family:Agreloy;-inkscape-font-specification:Agreloy;fill:#cc2c38;stroke-width:1.06666672"
         id="path3215"
         inkscape:connector-curvature="0" />
      <path
         d="m 611.27298,111.23209 c 3.37954,1.06083 5.46376,4.28668 5.64733,8.04326 l 0.57635,11.79393 c 0.14943,3.05769 -0.63256,3.18347 -2.55454,3.2774 1.6323,1.14622 2.90035,3.79896 3.04124,6.68192 l 0.32447,6.63954 c 0.12381,2.5335 -0.85821,5.73406 -3.58976,7.18111 l 20.35543,-0.99474 c -2.94272,-1.08219 -4.15331,-4.35073 -4.27285,-6.79688 l -1.07158,-21.92797 16.87627,28.16129 c 1.34688,2.47374 2.90692,5.72521 3.03927,8.43344 l 0.26209,-0.0128 c -0.11101,-2.27141 1.31636,-5.31859 2.90137,-8.72374 l 14.21194,-29.94324 1.0844,22.19005 c 0.1238,2.5335 -0.85821,5.73405 -3.58978,7.18111 l 20.53018,-1.00329 c -2.94273,-1.08219 -4.15331,-4.35072 -4.27285,-6.79687 l -0.32447,-6.63955 c -0.14089,-2.88295 0.77511,-5.64242 2.28787,-6.94234 -1.92197,0.094 -2.62514,0.0407 -2.77457,-3.01697 l -0.6404,-13.10436 c -0.11954,-2.44615 0.77085,-5.72979 3.58978,-7.18112 l -16.86095,0.82398 c -1.74725,0.0853 -4.02721,0.0217 -7.36208,-1.91707 -1.98601,-1.21651 -4.23412,-2.42022 -6.5929,-2.30495 -3.31977,0.16224 -5.917,2.56601 -5.78893,5.18688 0.1537,3.14504 2.54893,5.56756 5.43188,5.42666 1.74726,-0.0853 3.08528,-1.37676 3.01271,-2.86192 -0.0512,-1.04835 -0.96329,-1.79192 -2.01163,-1.74069 0.0555,1.13571 -0.95015,2.06057 -2.2606,2.12461 -1.74724,0.0853 -3.21335,-1.24411 -3.303,-3.07871 -0.111,-2.27143 2.06649,-4.3044 4.94946,-4.44529 3.58185,-0.17504 6.71441,2.99958 6.90653,6.93089 0.0512,1.04834 -0.15536,2.19686 -0.54948,3.09183 l -9.35869,21.73712 -12.17943,-21.64786 c -0.86737,-1.62146 -1.18101,-6.24741 -1.3347,-9.39245 -1.08646,2.85537 -3.71785,4.56024 -6.77553,4.70966 l -17.55985,0.85814"
         style="font-variant:normal;font-stretch:normal;font-size:82px;font-family:Agreloy;-inkscape-font-specification:Agreloy;fill:#cc2c38;stroke-width:1.06666672"
         id="path3217"
         inkscape:connector-curvature="0" />
    </g>
  </g>
</svg>
